<svg width="81" height="25" viewBox="0 0 81 25" fill="none" xmlns="http://www.w3.org/2000/svg">
<path d="M7.47314 6.87305C7.12831 6.87305 6.89844 7.1823 6.89844 7.64619V13.8315C6.89844 14.2954 7.12831 14.6046 7.47314 14.6046H8.62256V6.87305H7.47314Z" fill="white"/>
<path d="M8.62109 6.87305V14.6046L12.0693 13.8315V7.64619L8.62109 6.87305Z" fill="white"/>
<path d="M18.1033 19.7588H13.793V24.9132H18.1033V19.7588Z" fill="white"/>
<path d="M24.1271 15.2862C23.9754 10.3723 21.0181 6.87305 17.3783 6.87305H14.1935L12.0703 7.61756V13.5738L13.3594 14.8395C13.5111 14.9884 13.5869 15.1373 13.5869 15.3606V18.0409H18.1366V15.2117C18.1366 15.1373 18.1366 14.9883 18.2124 14.9139L18.6674 14.0205C18.8191 13.7227 19.0466 13.5738 19.3499 13.5738C21.0181 13.6482 22.6105 14.2438 23.8238 15.4351C23.8996 15.6584 24.2029 15.5095 24.1271 15.2862Z" fill="white"/>
<path d="M0 4.48433C0 2.0077 2.19922 0 4.9121 0H20.9497C23.6626 0 25.8618 2.0077 25.8618 4.48433V20.4286C25.8618 22.9052 23.6626 24.9129 20.9497 24.9129H4.9121C2.19922 24.9129 0 22.9052 0 20.4286V4.48433Z" fill="url(#paint0_linear_3625_764)"/>
<path d="M7.47314 6.87305C7.12831 6.87305 6.89844 7.1823 6.89844 7.64619V13.8315C6.89844 14.2954 7.12831 14.6046 7.47314 14.6046H8.62256V6.87305H7.47314Z" fill="white"/>
<path d="M8.62109 6.87305V14.6046L12.0693 13.8315V7.64619L8.62109 6.87305Z" fill="white"/>
<path d="M18.1033 19.7588H13.793V24.9132H18.1033V19.7588Z" fill="white"/>
<path d="M24.1271 15.2862C23.9754 10.3723 21.0181 6.87305 17.3783 6.87305H14.1935L12.0703 7.61756V13.5738L13.3594 14.8395C13.5111 14.9884 13.5869 15.1373 13.5869 15.3606V18.0409H18.1366V15.2117C18.1366 15.1373 18.1366 14.9883 18.2124 14.9139L18.6674 14.0205C18.8191 13.7227 19.0466 13.5738 19.3499 13.5738C21.0181 13.6482 22.6105 14.2438 23.8238 15.4351C23.8996 15.6584 24.2029 15.5095 24.1271 15.2862Z" fill="white"/>
<path d="M0 4.48433C0 2.0077 2.19922 0 4.9121 0H20.9497C23.6626 0 25.8618 2.0077 25.8618 4.48433V20.4286C25.8618 22.9052 23.6626 24.9129 20.9497 24.9129H4.9121C2.19922 24.9129 0 22.9052 0 20.4286V4.48433Z" fill="url(#paint1_linear_3625_764)"/>
<path d="M6.03392 6.87305C5.51669 6.87305 5.17188 7.1823 5.17188 7.64619V13.8315C5.17188 14.2954 5.51669 14.6046 6.03392 14.6046H7.75806V6.87305H6.03392Z" fill="white" fill-opacity="0.96"/>
<path d="M7.75781 6.87305V14.6046L10.344 13.8315V7.64619L7.75781 6.87305Z" fill="white" fill-opacity="0.96"/>
<path d="M16.8421 18.0391H12.6094V24.9116H16.8421V18.0391Z" fill="white" fill-opacity="0.96"/>
<path d="M22.4138 15.2862C22.2728 10.3723 19.524 6.87305 16.1408 6.87305H13.1805L11.207 7.61756V13.5738L12.4053 14.8395C12.5462 14.9884 12.6167 15.1373 12.6167 15.3606V18.0409H16.8457V15.2117C16.8457 15.1373 16.8457 14.9883 16.9162 14.9139L17.339 14.0205C17.48 13.7227 17.6915 13.5738 17.9734 13.5738C19.524 13.6482 21.0041 14.2438 22.1319 15.4351C22.2822 15.6252 22.4138 15.5207 22.4138 15.2862Z" fill="white" fill-opacity="0.96"/>
<path d="M6.03392 6.87305C5.51669 6.87305 5.17188 7.1823 5.17188 7.64619V13.8315C5.17188 14.2954 5.51669 14.6046 6.03392 14.6046H7.75806V6.87305H6.03392Z" fill="white" fill-opacity="0.96"/>
<path d="M7.75781 6.87305V14.6046L10.344 13.8315V7.64619L7.75781 6.87305Z" fill="white" fill-opacity="0.96"/>
<path d="M16.8421 18.0391H12.6094V24.9116H16.8421V18.0391Z" fill="white" fill-opacity="0.96"/>
<path d="M22.4138 15.2862C22.2728 10.3723 19.524 6.87305 16.1408 6.87305H13.1805L11.207 7.61756V13.5738L12.4053 14.8395C12.5462 14.9884 12.6167 15.1373 12.6167 15.3606V18.0409H16.8457V15.2117C16.8457 15.1373 16.8457 14.9883 16.9162 14.9139L17.339 14.0205C17.48 13.7227 17.6915 13.5738 17.9734 13.5738C19.524 13.6482 21.0041 14.2438 22.1319 15.4351C22.2822 15.6252 22.4138 15.5207 22.4138 15.2862Z" fill="white" fill-opacity="0.96"/>
<path d="M7.47314 6.87305C7.12831 6.87305 6.89844 7.1823 6.89844 7.64619V13.8315C6.89844 14.2954 7.12831 14.6046 7.47314 14.6046H8.62256V6.87305H7.47314Z" fill="white"/>
<path d="M8.62109 6.87305V14.6046L12.0693 13.8315V7.64619L8.62109 6.87305Z" fill="white"/>
<path d="M18.1033 19.7588H13.793V24.9132H18.1033V19.7588Z" fill="white"/>
<path d="M24.1271 15.2862C23.9754 10.3723 21.0181 6.87305 17.3783 6.87305H14.1935L12.0703 7.61756V13.5738L13.3594 14.8395C13.5111 14.9884 13.5869 15.1373 13.5869 15.3606V18.0409H18.1366V15.2117C18.1366 15.1373 18.1366 14.9883 18.2124 14.9139L18.6674 14.0205C18.8191 13.7227 19.0466 13.5738 19.3499 13.5738C21.0181 13.6482 22.6105 14.2438 23.8238 15.4351C23.8996 15.6584 24.2029 15.5095 24.1271 15.2862Z" fill="white"/>
<path d="M0 4.48433C0 2.0077 2.19922 0 4.9121 0H20.9497C23.6626 0 25.8618 2.0077 25.8618 4.48433V20.4286C25.8618 22.9052 23.6626 24.9129 20.9497 24.9129H4.9121C2.19922 24.9129 0 22.9052 0 20.4286V4.48433Z" fill="url(#paint2_linear_3625_764)"/>
<path d="M0 4.48433C0 2.0077 2.19922 0 4.9121 0H20.9497C23.6626 0 25.8618 2.0077 25.8618 4.48433V20.4286C25.8618 22.9052 23.6626 24.9129 20.9497 24.9129H4.9121C2.19922 24.9129 0 22.9052 0 20.4286V4.48433Z" fill="#C82DFF" fill-opacity="0.1"/>
<path d="M6.03392 6.87305C5.51669 6.87305 5.17188 7.1823 5.17188 7.64619V13.8315C5.17188 14.2954 5.51669 14.6046 6.03392 14.6046H7.75806V6.87305H6.03392Z" fill="white" fill-opacity="0.96"/>
<path d="M7.75781 6.87305V14.6046L10.344 13.8315V7.64619L7.75781 6.87305Z" fill="white" fill-opacity="0.96"/>
<path d="M16.8421 18.0391H12.6094V24.9116H16.8421V18.0391Z" fill="white" fill-opacity="0.96"/>
<path d="M22.4138 15.2862C22.2728 10.3723 19.524 6.87305 16.1408 6.87305H13.1805L11.207 7.61756V13.5738L12.4053 14.8395C12.5462 14.9884 12.6167 15.1373 12.6167 15.3606V18.0409H16.8457V15.2117C16.8457 15.1373 16.8457 14.9883 16.9162 14.9139L17.339 14.0205C17.48 13.7227 17.6915 13.5738 17.9734 13.5738C19.524 13.6482 21.0041 14.2438 22.1319 15.4351C22.2822 15.6252 22.4138 15.5207 22.4138 15.2862Z" fill="white" fill-opacity="0.96"/>
<path d="M51.536 5V10.36C50.912 9.528 49.824 9.032 48.656 9.032C46.464 9.032 44.8 10.824 44.8 13.112C44.8 15.4 46.464 17.176 48.656 17.176C49.872 17.176 51.008 16.648 51.6 15.768V17H52.768V5H51.536ZM51.552 13.112C51.552 15.08 50.24 16.04 48.832 16.04C47.248 16.04 46.064 14.776 46.064 13.096C46.064 11.416 47.248 10.168 48.832 10.168C50.24 10.168 51.552 11.128 51.552 13.112ZM55.1094 13.096C55.0774 15.288 56.9494 17.208 59.1734 17.16C61.3974 17.208 63.3174 15.288 63.2694 13.096C63.3174 10.872 61.4134 9 59.1894 9.032C56.9654 8.984 55.0614 10.872 55.1094 13.096ZM62.0054 13.112C62.0054 14.744 60.7574 16.024 59.1734 16.024C57.5894 16.024 56.3734 14.744 56.3734 13.112C56.3734 11.432 57.5894 10.168 59.1894 10.168C60.7734 10.168 62.0054 11.432 62.0054 13.112ZM65.075 13.096C65.075 15.352 66.899 17.176 69.155 17.176C70.515 17.176 71.651 16.52 72.355 15.48L71.475 14.792C70.851 15.624 70.083 16.04 69.171 16.04C67.555 16.04 66.339 14.728 66.339 13.096C66.339 11.48 67.555 10.168 69.171 10.168C70.083 10.168 70.867 10.584 71.491 11.432L72.371 10.728C71.667 9.688 70.515 9.032 69.155 9.032C66.931 9 65.027 10.872 65.075 13.096ZM73.9115 15.656C74.5995 16.552 75.6555 17.176 76.9515 17.176C77.7195 17.176 78.3595 16.984 78.8875 16.584C79.4155 16.184 79.6875 15.608 79.6875 14.888C79.6875 13.816 79.0795 13.208 77.6235 12.584L76.9035 12.28C75.9595 11.88 75.6395 11.64 75.6395 11.144C75.6395 10.52 76.1675 10.168 76.9355 10.168C77.6555 10.168 78.3275 10.504 78.8555 11.032L79.6075 10.264C78.9675 9.496 78.0875 9.032 76.9995 9.032C75.5115 9.032 74.3755 9.848 74.3755 11.208C74.3755 12.248 75.0155 12.84 76.3115 13.368L77.0635 13.688C78.0235 14.072 78.4235 14.312 78.4235 14.936C78.4235 15.624 77.7835 16.04 76.9355 16.04C76.0555 16.04 75.4475 15.608 74.6955 14.84L73.9115 15.656Z" fill="white" fill-opacity="0.57"/>
<defs>
<linearGradient id="paint0_linear_3625_764" x1="14.4949" y1="0.00270324" x2="14.4949" y2="24.9156" gradientUnits="userSpaceOnUse">
<stop offset="0.0001" stop-color="#8466FF"/>
<stop offset="1" stop-color="#687DFF"/>
</linearGradient>
<linearGradient id="paint1_linear_3625_764" x1="14.4949" y1="0.00270324" x2="14.4949" y2="24.9156" gradientUnits="userSpaceOnUse">
<stop offset="0.0001" stop-color="#8466FF"/>
<stop offset="1" stop-color="#687DFF"/>
</linearGradient>
<linearGradient id="paint2_linear_3625_764" x1="14.4949" y1="0.00270324" x2="14.4949" y2="24.9156" gradientUnits="userSpaceOnUse">
<stop offset="0.0001" stop-color="#8466FF"/>
<stop offset="1" stop-color="#687DFF"/>
</linearGradient>
</defs>
</svg>
